<svg width="276" height="303" viewBox="0 0 276 303" fill="none" xmlns="http://www.w3.org/2000/svg">
<path fill-rule="evenodd" clip-rule="evenodd" d="M33.0004 116.5C23.3352 116.5 15.5 124.335 15.5 134V270C15.5 279.665 23.335 287.5 33 287.5H243C252.665 287.5 260.5 279.665 260.5 270V165.544C260.5 161.402 263.858 158.044 268 158.044C272.142 158.044 275.5 161.402 275.5 165.544V270C275.5 287.949 260.949 302.5 243 302.5H33C15.0507 302.5 0.5 287.949 0.5 270V134C0.5 116.05 15.0512 101.5 33.0004 101.5H56.75C60.8921 101.5 64.25 104.858 64.25 109C64.25 113.142 60.8921 116.5 56.75 116.5H33.0004Z" />
<path fill-rule="evenodd" clip-rule="evenodd" d="M42 209.5C42 205.358 45.3579 202 49.5 202H64.1667C68.3088 202 71.6667 205.358 71.6667 209.5C71.6667 213.642 68.3088 217 64.1667 217H49.5C45.3579 217 42 213.642 42 209.5ZM86 209.5C86 205.358 89.3579 202 93.5 202H122.833C126.975 202 130.333 205.358 130.333 209.5C130.333 213.642 126.975 217 122.833 217H93.5C89.3579 217 86 213.642 86 209.5ZM144.667 209.5C144.667 205.358 148.025 202 152.167 202H181.5C185.642 202 189 205.358 189 209.5C189 213.642 185.642 217 181.5 217H152.167C148.025 217 144.667 213.642 144.667 209.5ZM203.333 209.5C203.333 205.358 206.691 202 210.833 202H225.5C229.642 202 233 205.358 233 209.5C233 213.642 229.642 217 225.5 217H210.833C206.691 217 203.333 213.642 203.333 209.5Z" />
<path fill-rule="evenodd" clip-rule="evenodd" d="M42 255.5C42 251.358 45.3579 248 49.5 248H60.5C64.6421 248 68 251.358 68 255.5C68 259.642 64.6421 263 60.5 263H49.5C45.3579 263 42 259.642 42 255.5ZM75 255.5C75 251.358 78.3579 248 82.5 248H104.5C108.642 248 112 251.358 112 255.5C112 259.642 108.642 263 104.5 263H82.5C78.3579 263 75 259.642 75 255.5ZM119 255.5C119 251.358 122.358 248 126.5 248H148.5C152.642 248 156 251.358 156 255.5C156 259.642 152.642 263 148.5 263H126.5C122.358 263 119 259.642 119 255.5ZM163 255.5C163 251.358 166.358 248 170.5 248H192.5C196.642 248 200 251.358 200 255.5C200 259.642 196.642 263 192.5 263H170.5C166.358 263 163 259.642 163 255.5ZM207 255.5C207 251.358 210.358 248 214.5 248H225.5C229.642 248 233 251.358 233 255.5C233 259.642 229.642 263 225.5 263H214.5C210.358 263 207 259.642 207 255.5Z" />
<path fill-rule="evenodd" clip-rule="evenodd" d="M226.719 21.6065L115.641 132.684L106.173 162.451L135.261 152.437L246.405 41.293L226.719 21.6065ZM217.88 9.23214C222.761 4.35057 230.676 4.35061 235.558 9.23215L258.78 32.4542C263.661 37.3357 263.661 45.2503 258.78 50.1318L145.46 163.452C144.117 164.795 142.486 165.814 140.69 166.432L106.351 178.254C96.6334 181.599 87.255 172.44 90.3703 162.646L101.531 127.558C102.137 125.653 103.191 123.921 104.604 122.508L217.88 9.23214Z" />
<path fill-rule="evenodd" clip-rule="evenodd" d="M112.256 121.124C115.185 118.195 119.933 118.195 122.862 121.124L150.022 148.283C152.951 151.212 152.951 155.961 150.022 158.89C147.093 161.819 142.344 161.819 139.415 158.89L112.256 131.73C109.327 128.801 109.327 124.053 112.256 121.124Z" />
</svg>
