<svg width="250" height="294" viewBox="0 0 250 294" fill="none" xmlns="http://www.w3.org/2000/svg">
<path fill-rule="evenodd" clip-rule="evenodd" d="M0.5 33C0.5 15.0507 15.0507 0.5 33 0.5H217.105C235.055 0.5 249.605 15.0508 249.605 33V261C249.605 278.949 235.055 293.5 217.105 293.5H33C15.0507 293.5 0.5 278.949 0.5 261V33ZM33 15.5C23.335 15.5 15.5 23.335 15.5 33V261C15.5 270.665 23.335 278.5 33 278.5H217.105C226.77 278.5 234.605 270.665 234.605 261V33C234.605 23.335 226.77 15.5 217.105 15.5H33Z" />
<path fill-rule="evenodd" clip-rule="evenodd" d="M86.1957 55.4043C74.5436 55.4043 65.0977 64.8502 65.0977 76.5024C65.0977 88.1545 74.5436 97.6005 86.1957 97.6005C97.8479 97.6005 107.294 88.1545 107.294 76.5024C107.294 64.8502 97.8479 55.4043 86.1957 55.4043ZM50.0977 76.5024C50.0977 56.566 66.2593 40.4043 86.1957 40.4043C106.132 40.4043 122.294 56.566 122.294 76.5024C122.294 96.4388 106.132 112.6 86.1957 112.6C66.2593 112.6 50.0977 96.4388 50.0977 76.5024Z" />
<path d="M47.7524 134.497C50.343 134.497 52.6893 133.066 54.1891 130.953C61.2971 120.943 72.9836 114.411 86.1956 114.411C99.4076 114.411 111.094 120.943 118.202 130.953C119.702 133.066 122.048 134.497 124.639 134.497V134.497C129.68 134.497 133.088 129.412 130.353 125.177C121 110.696 104.717 101.11 86.1956 101.11C67.6742 101.11 51.3916 110.696 42.0384 125.177C39.3031 129.412 42.7109 134.497 47.7524 134.497V134.497Z" />
<path fill-rule="evenodd" clip-rule="evenodd" d="M153.467 54.2153C153.467 50.0732 156.825 46.7153 160.967 46.7153H203.531C207.674 46.7153 211.031 50.0732 211.031 54.2153C211.031 58.3575 207.674 61.7153 203.531 61.7153H160.967C156.825 61.7153 153.467 58.3575 153.467 54.2153Z" />
<path fill-rule="evenodd" clip-rule="evenodd" d="M153.467 88.7991C153.467 84.6569 156.825 81.2991 160.967 81.2991H203.531C207.674 81.2991 211.031 84.6569 211.031 88.7991C211.031 92.9412 207.674 96.2991 203.531 96.2991H160.967C156.825 96.2991 153.467 92.9412 153.467 88.7991Z" />
<path fill-rule="evenodd" clip-rule="evenodd" d="M153.467 123.383C153.467 119.241 156.825 115.883 160.967 115.883H203.531C207.674 115.883 211.031 119.241 211.031 123.383C211.031 127.525 207.674 130.883 203.531 130.883H160.967C156.825 130.883 153.467 127.525 153.467 123.383Z" />
<path fill-rule="evenodd" clip-rule="evenodd" d="M39 169.5C39 165.358 42.3579 162 46.5 162H204.5C208.642 162 212 165.358 212 169.5C212 173.642 208.642 177 204.5 177H46.5C42.3579 177 39 173.642 39 169.5Z" />
<path fill-rule="evenodd" clip-rule="evenodd" d="M39 204.5C39 200.358 42.3579 197 46.5 197H204.5C208.642 197 212 200.358 212 204.5C212 208.642 208.642 212 204.5 212H46.5C42.3579 212 39 208.642 39 204.5Z" />
<path fill-rule="evenodd" clip-rule="evenodd" d="M39 239.5C39 235.358 42.3579 232 46.5 232H204.5C208.642 232 212 235.358 212 239.5C212 243.642 208.642 247 204.5 247H46.5C42.3579 247 39 243.642 39 239.5Z" />
</svg>
