<svg width="598" height="305" viewBox="0 0 598 305" fill="none" xmlns="http://www.w3.org/2000/svg">
<path fill-rule="evenodd" clip-rule="evenodd" d="M152.5 0H445.5C529.723 0 598 68.2766 598 152.5C598 236.723 529.723 305 445.5 305H152.5C68.2766 305 0 236.723 0 152.5C0 68.2766 68.2766 0 152.5 0ZM152.5 15C76.5609 15 15 76.5609 15 152.5C15 228.439 76.5609 290 152.5 290H445.5C521.439 290 583 228.439 583 152.5C583 76.5609 521.439 15 445.5 15H152.5Z" />
<path fill-rule="evenodd" clip-rule="evenodd" d="M266 153C266 213.751 216.751 263 156 263C95.2487 263 46 213.751 46 153C46 92.2487 95.2487 43 156 43C216.751 43 266 92.2487 266 153ZM211.558 204.764C214.929 201.035 210.424 195.866 205.588 197.239C198.939 199.127 191.921 200.138 184.667 200.138C142.461 200.138 108.245 165.923 108.245 123.716C108.245 116.462 109.256 109.444 111.144 102.796C112.518 97.96 107.349 93.4552 103.619 96.8259C88.1456 110.811 78.4224 131.04 78.4224 153.539C78.4224 195.746 112.638 229.961 154.844 229.961C177.344 229.961 197.573 220.238 211.558 204.764ZM185.578 83.6145C185.382 83.5306 185.186 83.4475 184.99 83.3654C181.169 81.7657 176.775 83.5663 175.176 87.387C173.576 91.2078 175.376 95.602 179.197 97.2016C179.355 97.2676 179.512 97.3342 179.669 97.4016C179.826 97.469 179.983 97.537 180.14 97.6055C183.933 99.2692 188.357 97.5427 190.02 93.7494C191.684 89.956 189.958 85.5323 186.164 83.8686C185.969 83.7832 185.774 83.6985 185.578 83.6145ZM134.526 96.6575C138.385 95.1519 140.292 90.8032 138.787 86.9444C137.281 83.0856 132.932 81.1779 129.073 82.6835C128.678 82.8378 128.284 82.9954 127.891 83.1563C124.059 84.7272 122.225 89.1076 123.796 92.9403C125.367 96.773 129.747 98.6066 133.58 97.0358C133.894 96.907 134.209 96.7809 134.526 96.6575ZM225.22 123.891C223.649 120.058 219.269 118.225 215.436 119.796C211.603 121.366 209.77 125.747 211.34 129.58C211.469 129.894 211.595 130.209 211.719 130.525C213.224 134.384 217.573 136.292 221.432 134.786C225.291 133.281 227.198 128.932 225.693 125.073C225.538 124.678 225.381 124.284 225.22 123.891ZM225.011 180.99C226.611 177.169 224.81 172.775 220.989 171.175C217.168 169.575 212.774 171.376 211.175 175.197C211.109 175.354 211.042 175.512 210.975 175.669C210.945 175.738 210.915 175.807 210.885 175.876C210.847 175.964 210.809 176.052 210.771 176.139C209.107 179.933 210.833 184.356 214.627 186.02C218.42 187.684 222.844 185.957 224.508 182.164C224.593 181.969 224.678 181.774 224.762 181.578C224.846 181.382 224.929 181.186 225.011 180.99Z" />
</svg>
