<svg width="554" height="284" viewBox="0 0 554 284" fill="none" xmlns="http://www.w3.org/2000/svg">
<path d="M441.523 142.922C441.523 157.532 429.679 169.375 415.07 169.375C400.46 169.375 388.617 157.532 388.617 142.922C388.617 128.313 400.46 116.47 415.07 116.47C429.679 116.47 441.523 128.313 441.523 142.922Z" />
<path fill-rule="evenodd" clip-rule="evenodd" d="M415.07 123.97C404.603 123.97 396.117 132.455 396.117 142.922C396.117 153.39 404.603 161.875 415.07 161.875C425.537 161.875 434.023 153.39 434.023 142.922C434.023 132.455 425.537 123.97 415.07 123.97ZM381.117 142.922C381.117 124.171 396.318 108.97 415.07 108.97C433.821 108.97 449.023 124.171 449.023 142.922C449.023 161.674 433.821 176.875 415.07 176.875C396.318 176.875 381.117 161.674 381.117 142.922Z" />
<path fill-rule="evenodd" clip-rule="evenodd" d="M408.54 82.1062C410.688 81.8779 412.868 81.761 415.071 81.761C417.275 81.761 419.454 81.8779 421.602 82.1062C425.721 82.5441 428.705 86.2381 428.268 90.357C427.83 94.476 424.136 97.46 420.017 97.0222C418.394 96.8497 416.744 96.761 415.071 96.761C413.398 96.761 411.748 96.8497 410.126 97.0222C406.007 97.46 402.313 94.476 401.875 90.357C401.437 86.2381 404.421 82.5441 408.54 82.1062ZM387.237 96.428C389.838 99.6517 389.333 104.374 386.109 106.975C383.54 109.048 381.197 111.391 379.124 113.96C376.523 117.184 371.801 117.689 368.577 115.088C365.354 112.487 364.849 107.765 367.45 104.541C370.192 101.142 373.291 98.0432 376.69 95.3007C379.914 92.6996 384.636 93.2044 387.237 96.428ZM442.906 96.428C445.507 93.2044 450.229 92.6996 453.452 95.3007C456.851 98.0432 459.95 101.142 462.693 104.541C465.294 107.765 464.789 112.487 461.565 115.088C458.342 117.689 453.62 117.184 451.019 113.96C448.946 111.391 446.603 109.048 444.033 106.975C440.81 104.374 440.305 99.6517 442.906 96.428ZM362.506 129.726C366.625 130.164 369.609 133.858 369.171 137.977C368.999 139.599 368.91 141.249 368.91 142.922C368.91 144.595 368.999 146.245 369.171 147.868C369.609 151.987 366.625 155.681 362.506 156.118C358.387 156.556 354.693 153.572 354.255 149.453C354.027 147.305 353.91 145.126 353.91 142.922C353.91 140.718 354.027 138.539 354.255 136.391C354.693 132.272 358.387 129.288 362.506 129.726ZM467.636 129.726C471.755 129.288 475.449 132.272 475.887 136.391C476.116 138.539 476.232 140.718 476.232 142.922C476.232 145.126 476.116 147.305 475.887 149.453C475.449 153.572 471.755 156.556 467.636 156.118C463.518 155.681 460.533 151.987 460.971 147.868C461.144 146.245 461.232 144.595 461.232 142.922C461.232 141.249 461.144 139.599 460.971 137.977C460.533 133.858 463.518 130.164 467.636 129.726ZM368.577 170.757C371.801 168.156 376.523 168.66 379.124 171.884C381.197 174.454 383.54 176.797 386.109 178.87C389.333 181.471 389.838 186.193 387.237 189.416C384.636 192.64 379.914 193.145 376.69 190.544C373.291 187.801 370.192 184.702 367.45 181.303C364.849 178.08 365.354 173.358 368.577 170.757ZM461.565 170.757C464.789 173.358 465.294 178.08 462.693 181.303C459.95 184.702 456.851 187.801 453.452 190.544C450.229 193.145 445.507 192.64 442.906 189.416C440.305 186.193 440.81 181.471 444.033 178.87C446.603 176.797 448.946 174.454 451.019 171.884C453.62 168.66 458.342 168.156 461.565 170.757ZM401.875 195.487C402.313 191.368 406.007 188.384 410.126 188.822C411.748 188.995 413.398 189.083 415.071 189.083C416.744 189.083 418.394 188.995 420.017 188.822C424.136 188.384 427.83 191.368 428.268 195.487C428.705 199.606 425.721 203.3 421.602 203.738C419.454 203.966 417.275 204.083 415.071 204.083C412.868 204.083 410.688 203.966 408.54 203.738C404.421 203.3 401.437 199.606 401.875 195.487Z" />
<path fill-rule="evenodd" clip-rule="evenodd" d="M354.298 82.9996C354.438 82.8572 354.58 82.7152 354.721 82.5735C354.863 82.4319 355.005 82.2909 355.147 82.1504C358.096 79.2418 362.845 79.2746 365.754 82.2236C368.662 85.1727 368.629 89.9213 365.68 92.83C365.563 92.9462 365.445 93.0629 365.328 93.1801C365.211 93.2974 365.094 93.4149 364.978 93.5327C362.069 96.4818 357.32 96.5146 354.371 93.6059C351.422 90.6973 351.389 85.9486 354.298 82.9996ZM337.278 134.877C341.42 134.906 344.754 138.287 344.725 142.429C344.723 142.758 344.723 143.087 344.725 143.416C344.754 147.558 341.42 150.939 337.278 150.968C333.136 150.997 329.755 147.663 329.726 143.521C329.723 143.122 329.723 142.723 329.726 142.324C329.755 138.182 333.136 134.848 337.278 134.877ZM407.024 65.1303C406.996 60.9883 410.33 57.6071 414.472 57.5782C414.871 57.5754 415.27 57.5754 415.668 57.5782C419.81 57.6071 423.145 60.9883 423.116 65.1303C423.087 69.2723 419.706 72.6067 415.564 72.5778C415.235 72.5755 414.906 72.5756 414.577 72.5778C410.435 72.6067 407.053 69.2723 407.024 65.1303ZM354.371 192.239C357.32 189.331 362.069 189.363 364.978 192.313C365.094 192.43 365.211 192.548 365.328 192.665C365.445 192.782 365.563 192.899 365.68 193.015C368.629 195.924 368.662 200.672 365.754 203.622C362.845 206.571 358.096 206.603 355.147 203.695C355.005 203.554 354.863 203.413 354.721 203.272C354.58 203.13 354.438 202.988 354.298 202.846C351.389 199.897 351.422 195.148 354.371 192.239ZM464.387 82.2236C467.296 79.2746 472.044 79.2418 474.993 82.1504C475.136 82.2909 475.278 82.4319 475.419 82.5735C475.47 82.6245 475.521 82.6756 475.572 82.7267C475.662 82.8175 475.753 82.9085 475.842 82.9996C478.751 85.9486 478.718 90.6973 475.769 93.6059C472.82 96.5146 468.072 96.4818 465.163 93.5327C465.047 93.4149 464.93 93.2974 464.813 93.1801C464.695 93.0629 464.578 92.9462 464.46 92.83C461.511 89.9213 461.478 85.1727 464.387 82.2236ZM407.024 220.715C407.053 216.573 410.435 213.238 414.577 213.267C414.906 213.27 415.235 213.27 415.564 213.267C419.706 213.239 423.087 216.573 423.116 220.715C423.145 224.857 419.81 228.238 415.668 228.267C415.27 228.27 414.871 228.27 414.472 228.267C410.33 228.238 406.996 224.857 407.024 220.715ZM492.863 134.877C497.005 134.848 500.386 138.182 500.415 142.324C500.417 142.723 500.417 143.122 500.415 143.521C500.386 147.663 497.005 150.997 492.863 150.968C488.721 150.939 485.386 147.558 485.415 143.416C485.417 143.087 485.417 142.758 485.415 142.429C485.386 138.287 488.721 134.906 492.863 134.877ZM464.387 203.622C461.478 200.673 461.511 195.924 464.46 193.015C464.578 192.899 464.695 192.782 464.813 192.665C464.93 192.548 465.047 192.43 465.163 192.313C468.072 189.363 472.82 189.331 475.769 192.239C478.718 195.148 478.751 199.897 475.842 202.846C475.702 202.988 475.561 203.13 475.419 203.272C475.278 203.413 475.136 203.554 474.993 203.695C472.044 206.603 467.296 206.571 464.387 203.622Z" />
<path fill-rule="evenodd" clip-rule="evenodd" d="M141.849 0H412.151C490.492 0 554 63.5078 554 141.849C554 220.189 490.492 283.697 412.151 283.697H141.849C63.5078 283.697 0 220.189 0 141.849C0 63.5078 63.5078 0 141.849 0ZM141.849 15C71.7921 15 15 71.792 15 141.849C15 211.905 71.7921 268.697 141.849 268.697H412.151C482.208 268.697 539 211.905 539 141.849C539 71.792 482.208 15 412.151 15H141.849Z" />
<path fill-rule="evenodd" clip-rule="evenodd" d="M413.536 48.3311C361.632 48.3311 319.557 90.4068 319.557 142.31C319.557 194.213 361.632 236.289 413.536 236.289C465.439 236.289 507.514 194.213 507.514 142.31C507.514 90.4068 465.439 48.3311 413.536 48.3311ZM304.557 142.31C304.557 82.1226 353.348 33.3311 413.536 33.3311C473.723 33.3311 522.514 82.1226 522.514 142.31C522.514 202.497 473.723 251.289 413.536 251.289C353.348 251.289 304.557 202.497 304.557 142.31Z" />
</svg>
