<svg width="288" height="288" viewBox="0 0 288 288" fill="none" xmlns="http://www.w3.org/2000/svg">
<path fill-rule="evenodd" clip-rule="evenodd" d="M144.351 122.816C147.506 123.818 149.631 126.769 149.581 130.078L147.885 242.235C147.822 246.377 144.414 249.683 140.272 249.621C136.131 249.558 132.824 246.15 132.886 242.008L134.206 154.771L84.9617 226.792C82.6238 230.212 77.9567 231.088 74.5374 228.75C71.1181 226.412 70.2415 221.745 72.5794 218.326L135.891 125.731C137.759 122.999 141.197 121.815 144.351 122.816Z" />
<path fill-rule="evenodd" clip-rule="evenodd" d="M149.872 103.785C145.967 102.545 141.797 104.706 140.557 108.611C139.317 112.516 141.477 116.686 145.382 117.926C149.287 119.166 153.458 117.005 154.698 113.1C155.937 109.196 153.777 105.025 149.872 103.785ZM126.26 104.072C130.007 92.2709 142.61 85.7417 154.411 89.4884C166.212 93.2351 172.741 105.839 168.994 117.64C165.248 129.44 152.644 135.97 140.843 132.223C129.042 128.476 122.513 115.872 126.26 104.072Z" />
<path fill-rule="evenodd" clip-rule="evenodd" d="M99.6845 181.199C100.938 177.251 105.155 175.067 109.102 176.32L169.77 195.582C173.717 196.835 175.902 201.052 174.648 205C173.395 208.948 169.178 211.132 165.23 209.878L104.563 190.617C100.615 189.364 98.4311 185.147 99.6845 181.199Z" />
<path fill-rule="evenodd" clip-rule="evenodd" d="M116.956 21.4299C119.344 24.8139 118.537 29.4936 115.153 31.8823C99.1817 43.1564 85.1842 62.271 78.9238 80.6513C77.5883 84.5722 73.3271 86.6681 69.4062 85.3326C65.4853 83.9972 63.3893 79.736 64.7248 75.815C71.9701 54.5431 87.8567 32.79 106.503 19.6278C109.887 17.2391 114.567 18.0459 116.956 21.4299Z" />
<path fill-rule="evenodd" clip-rule="evenodd" d="M138.893 43.6735C153.454 36.3026 170.102 34.1478 186.059 37.5687C202.016 40.9896 216.317 49.7793 226.577 62.4711C229.181 65.6924 228.68 70.4147 225.459 73.0186C222.237 75.6226 217.515 75.1221 214.911 71.9007C206.81 61.8781 195.516 54.9369 182.915 52.2354C170.313 49.534 157.167 51.2356 145.668 57.0564C141.973 58.9272 137.46 57.448 135.589 53.7524C133.719 50.0568 135.198 45.5443 138.893 43.6735Z" />
<path fill-rule="evenodd" clip-rule="evenodd" d="M186.231 237.65C189.445 235.036 194.169 235.522 196.782 238.736C200.162 242.89 202.809 245.853 204.778 247.804C205.765 248.781 206.49 249.413 206.978 249.787C207.101 249.882 207.194 249.948 207.258 249.993C210.899 251.466 212.812 255.537 211.553 259.314C210.243 263.244 205.996 265.367 202.067 264.057C200.35 263.485 198.889 262.488 197.841 261.683C196.685 260.795 195.473 259.699 194.223 258.461C191.718 255.98 188.692 252.561 185.146 248.201C182.532 244.988 183.018 240.264 186.231 237.65ZM207.368 250.064C207.368 250.064 207.366 250.063 207.362 250.06C207.366 250.062 207.368 250.064 207.368 250.064Z" />
<path fill-rule="evenodd" clip-rule="evenodd" d="M75.0693 148.44C75.0693 152.583 71.7115 155.94 67.5693 155.94L7.99956 155.94C3.85742 155.94 0.499558 152.583 0.499558 148.44C0.499559 144.298 3.85742 140.94 7.99956 140.94L67.5693 140.94C71.7115 140.94 75.0693 144.298 75.0693 148.44Z" />
<path fill-rule="evenodd" clip-rule="evenodd" d="M75.0693 120.074C75.0693 124.216 71.7115 127.574 67.5693 127.574L39.2028 127.574C35.0606 127.574 31.7028 124.216 31.7028 120.074C31.7028 115.932 35.0606 112.574 39.2028 112.574L67.5693 112.574C71.7115 112.574 75.0693 115.932 75.0693 120.074Z" />
<path fill-rule="evenodd" clip-rule="evenodd" d="M83.2269 69.014C91.1808 51.9447 104.274 37.0634 121.821 26.9328C167.272 0.691601 225.39 16.2643 251.632 61.7155C268.776 91.41 268.072 126.511 252.849 154.597L252.849 154.598C251.563 156.971 250.173 159.295 248.681 161.56L270.009 198.502C277.843 212.07 273.194 229.418 259.627 237.252L236.289 250.726C223.012 258.391 206.114 254.104 198.056 241.203V261.273C205.595 266.429 214.626 269.027 223.73 268.687L225.12 271.095C234.324 287.037 254.709 292.499 270.65 283.295C286.592 274.091 292.054 253.706 282.85 237.764L281.46 235.357C289.582 222.43 290.457 205.551 282.292 191.411L265.136 161.695C282.803 129.363 283.684 88.8655 263.915 54.6239C233.757 2.38893 166.964 -15.5081 114.729 14.6498C92.5323 27.4652 76.536 46.896 67.793 69.014H83.2269ZM238.354 265.49C243.999 273.487 254.915 276.002 263.559 271.012C272.202 266.021 275.483 255.31 271.379 246.423C269.915 247.546 268.36 248.587 266.718 249.535L243.38 263.009C241.738 263.957 240.059 264.783 238.354 265.49Z" />
</svg>
