<svg width="554" height="284" viewBox="0 0 554 284" fill="none" xmlns="http://www.w3.org/2000/svg">
<path fill-rule="evenodd" clip-rule="evenodd" d="M141.849 0H412.151C490.492 0 554 63.5078 554 141.849C554 220.189 490.492 283.697 412.151 283.697H141.849C63.5078 283.697 0 220.189 0 141.849C0 63.5078 63.5078 0 141.849 0ZM141.849 15C71.7921 15 15 71.792 15 141.849C15 211.905 71.7921 268.697 141.849 268.697H412.151C482.208 268.697 539 211.905 539 141.849C539 71.792 482.208 15 412.151 15H141.849Z" />
<path fill-rule="evenodd" clip-rule="evenodd" d="M195.415 191.06C198.856 187.395 194.38 182.2 189.518 183.479C183.774 184.991 177.743 185.796 171.525 185.796C132.588 185.796 101.023 154.232 101.023 115.294C101.023 109.076 101.828 103.045 103.34 97.3008C104.619 92.4393 99.4237 87.9633 95.7592 91.4046C82.0639 104.266 73.5098 122.538 73.5098 142.807C73.5098 181.745 105.075 213.309 144.012 213.309C164.282 213.309 182.554 204.755 195.415 191.06Z" />
<path fill-rule="evenodd" clip-rule="evenodd" d="M172.046 77.5335C172.229 77.6099 172.411 77.6871 172.593 77.7652C172.775 77.8433 172.957 77.9221 173.138 78.0015C176.932 79.6652 178.658 84.089 176.994 87.8823C175.331 91.6757 170.907 93.4021 167.114 91.7385C166.971 91.6759 166.828 91.6138 166.684 91.5523C166.541 91.4907 166.397 91.4299 166.253 91.3697C162.432 89.77 160.632 85.3759 162.232 81.5551C163.831 77.7343 168.225 75.9338 172.046 77.5335ZM129.739 81.1599C131.244 85.0187 129.337 89.3675 125.478 90.8731C125.189 90.9857 124.901 91.1008 124.614 91.2184C120.782 92.7892 116.401 90.9556 114.83 87.1229C113.26 83.2902 115.093 78.9097 118.926 77.3389C119.291 77.1892 119.658 77.0426 120.026 76.8991C123.884 75.3935 128.233 77.3011 129.739 81.1599ZM199.689 111.14C203.521 109.569 207.902 111.403 209.473 115.235C209.622 115.601 209.769 115.967 209.913 116.335C211.418 120.194 209.511 124.543 205.652 126.048C201.793 127.554 197.444 125.646 195.939 121.787C195.826 121.498 195.711 121.211 195.593 120.924C194.022 117.091 195.856 112.711 199.689 111.14ZM91.5729 109.817C95.3662 111.481 97.0927 115.905 95.429 119.698C95.3664 119.841 95.3044 119.984 95.2428 120.127C95.1813 120.271 95.1204 120.415 95.0602 120.558C93.4606 124.379 89.0664 126.18 85.2456 124.58C81.4249 122.98 79.6243 118.586 81.224 114.765C81.3004 114.583 81.3777 114.401 81.4557 114.218C81.5338 114.036 81.6126 113.855 81.6921 113.673C83.3557 109.88 87.7795 108.154 91.5729 109.817ZM205.257 158.541C209.077 160.141 210.878 164.535 209.278 168.356C209.202 168.538 209.125 168.72 209.046 168.903C208.968 169.085 208.89 169.267 208.81 169.448C207.146 173.241 202.723 174.968 198.929 173.304C195.136 171.64 193.41 167.216 195.073 163.423C195.136 163.28 195.198 163.137 195.259 162.994C195.321 162.85 195.382 162.706 195.442 162.563C197.042 158.742 201.436 156.941 205.257 158.541ZM84.8505 157.073C88.7093 155.567 93.058 157.475 94.5636 161.334C94.6763 161.623 94.7914 161.91 94.9089 162.197C96.4798 166.03 94.6462 170.41 90.8135 171.981C86.9807 173.552 82.6003 171.718 81.0294 167.886C80.8797 167.52 80.7331 167.154 80.5896 166.786C79.084 162.927 80.9917 158.579 84.8505 157.073ZM175.672 195.998C177.243 199.831 175.409 204.211 171.576 205.782C171.211 205.932 170.844 206.079 170.477 206.222C166.618 207.728 162.269 205.82 160.764 201.961C159.258 198.102 161.166 193.754 165.024 192.248C165.313 192.135 165.601 192.02 165.888 191.903C169.72 190.332 174.101 192.165 175.672 195.998ZM113.508 195.239C115.171 191.445 119.595 189.719 123.389 191.383C123.531 191.445 123.674 191.507 123.818 191.569C123.895 191.602 123.973 191.635 124.05 191.668C124.116 191.696 124.183 191.724 124.249 191.751C128.07 193.351 129.87 197.745 128.271 201.566C126.671 205.387 122.277 207.187 118.456 205.588C118.274 205.511 118.091 205.434 117.909 205.356C117.727 205.278 117.545 205.199 117.364 205.12C113.571 203.456 111.844 199.032 113.508 195.239Z" />
<path fill-rule="evenodd" clip-rule="evenodd" d="M145.078 48.3311C93.1744 48.3311 51.0986 90.4068 51.0986 142.31C51.0986 194.213 93.1744 236.289 145.078 236.289C196.981 236.289 239.056 194.213 239.056 142.31C239.056 90.4068 196.981 48.3311 145.078 48.3311ZM36.0986 142.31C36.0986 82.1226 84.8901 33.3311 145.078 33.3311C205.265 33.3311 254.056 82.1226 254.056 142.31C254.056 202.497 205.265 251.289 145.078 251.289C84.8901 251.289 36.0986 202.497 36.0986 142.31Z" />
</svg>
